{"title":"Tosh.0 - S02E11 - The Look at That Horse Guy","uid":5619016,"size":242496468,"categoryP":"video","categoryS":"tv_shows","magnet":"?xt=urn:btih:b68185574bd4b43678f53de8daa3abb6f67a0164&amp;dn=Tosh.0+-+S02E11+-+The+Look+at+That+Horse+Guy&amp;tr=udp%3A%2F%2Ftracker.openbittorrent.com%3A80&amp;tr=udp%3A%2F%2Fopen.demonii.com%3A1337&amp;tr=udp%3A%2F%2Ftracker.coppersurfer.tk%3A6969&amp;tr=udp%3A%2F%2Fexodus.desync.com%3A6969","seeders":1,"leechers":0,"uploader":"syndre","files":-1,"time":1276187564,"description":"General\nComplete name                    : E:Tosh.0 - S02E11 - The Look at That Horse GuyTosh.0 - S02E11 - The Look at That Horse Guy.avi\nFormat                           : DivX\nFormat/Info                      : Hack of AVI\nFile size                        : 231 MiB\nDuration                         : 20mn 59s\nOverall bit rate                 : 1 540 Kbps\n\nVideo\nID                               : 0\nFormat                           : MPEG-4 Visual\nFormat settings, BVOP            : No\nFormat settings, QPel            : No\nFormat settings, GMC             : No warppoints\nFormat settings, Matrix          : Default (H.263)\nCodec ID                         : DX50\nCodec ID/Hint                    : DivX 5\nDuration                         : 20mn 59s\nBit rate                         : 1 401 Kbps\nWidth                            : 720 pixels\nHeight                           : 480 pixels\nDisplay aspect ratio             : 3:2\nFrame rate                       : 29.970 fps\nStandard                         : NTSC\nResolution                       : 8 bits\nColorimetry                      : 4:2:0\nScan type                        : Progressive\nBits/(Pixel*Frame)               : 0.135\nStream size                      : 210 MiB (91%)\nTitle                            : Video\nWriting library                  : DivX 6.6.1.4\n\nAudio\nID                               : 1\nFormat                           : MPEG Audio\nFormat version                   : Version 1\nFormat profile                   : Layer 3\nMode                             : Joint stereo\nFormat_Settings_ModeExtension    : MS Stereo\nCodec ID                         : 55\nCodec ID/Hint                    : MP3\nDuration                         : 20mn 59s\nBit rate mode                    : Constant\nBit rate                         : 128 Kbps\nChannel(s)                       : 2 channels\nSampling rate                    : 48.0 KHz\nStream size                      : 19.2 MiB (8%)\nAlignment                        : Split accross interleaves\nInterleave, duration             : 33 ms (1.00 video frame)\nInterleave, preload duration     : 500 ms\nTitle                            : Audio\nWriting library                  : LAME3.96\n\n","torrent":{"xt":"urn:btih:b68185574bd4b43678f53de8daa3abb6f67a0164","amp;dn":"Tosh.0+-+S02E11+-+The+Look+at+That+Horse+Guy","amp;tr":["udp%3A%2F%2Ftracker.openbittorrent.com%3A80","udp%3A%2F%2Fopen.demonii.com%3A1337","udp%3A%2F%2Ftracker.coppersurfer.tk%3A6969","udp%3A%2F%2Fexodus.desync.com%3A6969"],"infoHash":"b68185574bd4b43678f53de8daa3abb6f67a0164","infoHashBuffer":{"type":"Buffer","data":[182,129,133,87,75,212,180,54,120,245,61,232,218,163,171,182,246,122,1,100]},"announce":[],"urlList":[]}}